<svg width="171" height="171" viewBox="0 0 171 171" fill="none" xmlns="http://www.w3.org/2000/svg">
<g clip-path="url(#clip0_403_6889)">
<mask id="mask0_403_6889" style="mask-type:luminance" maskUnits="userSpaceOnUse" x="0" y="0" width="171" height="171">
<path d="M171 0H0V171H171V0Z" fill="white"/>
</mask>
<g mask="url(#mask0_403_6889)">
<path d="M35.7297 151.175H138.398M107.856 135.807L138.398 135.934M35.7297 135.934L87.406 135.807M35.6895 120.556H138.357" stroke="#D4D4D4" stroke-width="12.415" stroke-linecap="round" stroke-linejoin="round"/>
<path d="M35.7297 135.934C35.7297 135.934 42.7987 135.916 51.7075 135.894M35.6895 120.556H138.357" stroke="#FF9800" stroke-width="12.415" stroke-linecap="round" stroke-linejoin="round"/>
<path d="M114.548 98.7323V86.9102M119.667 89.866L109.429 95.7765M109.429 89.866L119.667 95.7765M96.0397 98.7323V86.9102M101.159 89.866L90.9207 95.7765M90.9207 89.866L101.159 95.7765M78.0762 98.7323V86.9102M83.1952 89.866L72.9571 95.7765M72.9571 89.866L83.1952 95.7765M59.5683 98.7323V86.9102M64.6874 89.866L54.4492 95.7765M54.4492 89.866L64.6874 95.7765" stroke="#D3D3D3" stroke-width="3.82" stroke-linecap="round" stroke-linejoin="round"/>
<g opacity="0.369033">
<path d="M96.039 98.7323V86.9102M101.158 89.866L90.9199 95.7765M90.9199 89.866L101.158 95.7765" stroke="#FF9800" stroke-width="3.82" stroke-linecap="round" stroke-linejoin="round"/>
</g>
<g opacity="0.01">
<path d="M78.0761 98.7323V86.9102M83.1952 89.866L72.957 95.7765M72.957 89.866L83.1952 95.7765" stroke="#FF9800" stroke-width="3.82" stroke-linecap="round" stroke-linejoin="round"/>
</g>
<path d="M103.568 51.4079C103.568 60.405 96.2755 67.6971 87.2785 67.6971C78.2815 67.6971 70.9883 60.405 70.9883 51.4079V35.3779H103.568V51.4079Z" fill="#FF9800"/>
<path d="M78.4046 35.8041C78.4046 35.8041 78.373 35.4666 78.373 30.5598C78.373 25.653 82.3512 21.6738 87.2579 21.6738C92.1647 21.6738 96.1439 25.653 96.1439 30.5598V35.6244" stroke="#3D95B0" stroke-width="5.73" stroke-linejoin="round"/>
<path d="M91.0123 47.6746C91.0123 49.7366 89.3412 51.4088 87.2792 51.4088C85.2172 51.4088 83.5449 49.7366 83.5449 47.6746C83.5449 45.6126 85.2172 43.9414 87.2792 43.9414C89.3412 43.9414 91.0123 45.6126 91.0123 47.6746Z" fill="#3D95B0"/>
<path d="M87.2793 50.3896V54.6737" stroke="#3D95B0" stroke-width="3.82" stroke-linecap="round" stroke-linejoin="round"/>
<path d="M73.6094 39.5004C73.6094 38.6708 74.2822 37.999 75.1118 37.999C75.9414 37.999 76.6131 38.6708 76.6131 39.5004C76.6131 40.3299 75.9414 41.0027 75.1118 41.0027C74.2822 41.0027 73.6094 40.3299 73.6094 39.5004ZM100.948 39.5004C100.948 38.6708 100.276 37.999 99.4464 37.999C98.6168 37.999 97.944 38.6708 97.944 39.5004C97.944 40.3299 98.6168 41.0027 99.4464 41.0027C100.276 41.0027 100.948 40.3299 100.948 39.5004Z" fill="#73C2B1"/>
</g>
</g>
<defs>
<clipPath id="clip0_403_6889">
<rect width="171" height="171" fill="white"/>
</clipPath>
</defs>
</svg>
