<svg width="256" height="256" viewBox="0 0 256 256" fill="none" xmlns="http://www.w3.org/2000/svg">
<g clip-path="url(#clip0_403_6704)">
<mask id="mask0_403_6704" style="mask-type:luminance" maskUnits="userSpaceOnUse" x="0" y="0" width="256" height="256">
<path d="M256 0H0V256H256V0Z" fill="white"/>
</mask>
<g mask="url(#mask0_403_6704)">
<g opacity="0.3">
<path d="M131.383 37.3701C181.402 37.3701 222.013 77.9812 222.013 128C222.013 178.018 181.402 218.629 131.383 218.629C81.365 218.629 40.7539 178.018 40.7539 128C40.7539 77.9812 81.365 37.3701 131.383 37.3701Z" fill="#FFF6EB"/>
<path d="M131.383 37.3701C181.402 37.3701 222.013 77.9812 222.013 128C222.013 178.018 181.402 218.629 131.383 218.629C81.365 218.629 40.7539 178.018 40.7539 128C40.7539 77.9812 81.365 37.3701 131.383 37.3701Z" stroke="#FF9B06" stroke-width="2.577" stroke-miterlimit="10"/>
</g>
<path d="M62.4723 40.3389C67.0037 40.3389 70.6828 44.018 70.6828 48.5494C70.6828 53.0808 67.0037 56.76 62.4723 56.76C57.9409 56.76 54.2617 53.0808 54.2617 48.5494C54.2617 44.018 57.9409 40.3389 62.4723 40.3389Z" fill="url(#paint0_linear_403_6704)"/>
<path d="M68.1008 121.614C69.5254 121.614 70.682 122.771 70.682 124.196C70.682 125.62 69.5254 126.777 68.1008 126.777C66.6762 126.777 65.5195 125.62 65.5195 124.196C65.5195 122.771 66.6762 121.614 68.1008 121.614Z" fill="url(#paint1_linear_403_6704)"/>
<path d="M191.522 56.7598C194.388 56.7598 196.714 59.0864 196.714 61.952C196.714 64.8175 194.388 67.1441 191.522 67.1441C188.657 67.1441 186.33 64.8175 186.33 61.952C186.33 59.0864 188.657 56.7598 191.522 56.7598Z" fill="url(#paint2_linear_403_6704)"/>
<path d="M206.393 191.339C209.5 191.339 212.022 193.861 212.022 196.968C212.022 200.075 209.5 202.597 206.393 202.597C203.286 202.597 200.764 200.075 200.764 196.968C200.764 193.861 203.286 191.339 206.393 191.339Z" fill="url(#paint3_linear_403_6704)"/>
<path d="M37.1591 167.254C38.9091 167.254 40.3299 168.675 40.3299 170.425C40.3299 172.175 38.9091 173.596 37.1591 173.596C35.4091 173.596 33.9883 172.175 33.9883 170.425C33.9883 168.675 35.4091 167.254 37.1591 167.254Z" fill="url(#paint4_linear_403_6704)"/>
<path d="M160.602 167.679H101.911C96.5212 167.679 92.1523 163.31 92.1523 157.921V109.005C92.1523 103.616 96.5212 99.2471 101.911 99.2471H160.602C165.991 99.2471 170.36 103.616 170.36 109.005V157.921C170.36 163.31 165.991 167.679 160.602 167.679Z" fill="url(#paint5_linear_403_6704)"/>
<path d="M151.57 99.2474V89.5847C151.57 78.4668 142.557 69.4541 131.439 69.4541C120.321 69.4541 111.309 78.4668 111.309 89.5847V99.2474" stroke="url(#paint6_linear_403_6704)" stroke-width="33.505" stroke-miterlimit="10"/>
<g opacity="0.5">
<path d="M153.986 140.562C151.297 140.562 149.098 138.363 149.098 135.674C149.098 132.986 151.297 130.786 153.986 130.786C156.674 130.786 158.874 132.986 158.874 135.674C158.874 138.363 156.674 140.562 153.986 140.562Z" fill="white"/>
<path d="M138.831 140.562C136.143 140.562 133.943 138.363 133.943 135.674C133.943 132.986 136.143 130.786 138.831 130.786C141.52 130.786 143.719 132.986 143.719 135.674C143.719 138.363 141.52 140.562 138.831 140.562Z" fill="white"/>
<path d="M123.679 140.562C120.991 140.562 118.791 138.363 118.791 135.674C118.791 132.986 120.991 130.786 123.679 130.786C126.368 130.786 128.567 132.986 128.567 135.674C128.567 138.363 126.368 140.562 123.679 140.562Z" fill="white"/>
<path d="M108.527 140.562C105.838 140.562 103.639 138.363 103.639 135.674C103.639 132.986 105.838 130.786 108.527 130.786C111.215 130.786 113.415 132.986 113.415 135.674C113.415 138.363 111.215 140.562 108.527 140.562Z" fill="white"/>
</g>
<g opacity="0.983955">
<path d="M151.427 140.973C148.739 140.973 146.539 138.774 146.539 136.085C146.539 133.397 148.739 131.197 151.427 131.197C154.116 131.197 156.315 133.397 156.315 136.085C156.315 138.774 154.116 140.973 151.427 140.973Z" fill="white"/>
</g>
<g opacity="0.983955">
<path d="M136.273 140.973C133.584 140.973 131.385 138.774 131.385 136.085C131.385 133.397 133.584 131.197 136.273 131.197C138.961 131.197 141.161 133.397 141.161 136.085C141.161 138.774 138.961 140.973 136.273 140.973Z" fill="white"/>
</g>
<g opacity="0.983955">
<path d="M121.12 140.973C118.432 140.973 116.232 138.774 116.232 136.085C116.232 133.397 118.432 131.197 121.12 131.197C123.809 131.197 126.009 133.397 126.009 136.085C126.009 138.774 123.809 140.973 121.12 140.973Z" fill="white"/>
</g>
<g opacity="0.983955">
<path d="M105.968 140.973C103.28 140.973 101.08 138.774 101.08 136.085C101.08 133.397 103.28 131.197 105.968 131.197C108.657 131.197 110.856 133.397 110.856 136.085C110.856 138.774 108.657 140.973 105.968 140.973Z" fill="white"/>
</g>
</g>
</g>
<defs>
<linearGradient id="paint0_linear_403_6704" x1="56.4343" y1="42.4912" x2="68.0457" y2="54.1026" gradientUnits="userSpaceOnUse">
<stop stop-color="#FFE77B"/>
<stop offset="0.5" stop-color="#FFC141"/>
<stop offset="1" stop-color="#FF9B06"/>
</linearGradient>
<linearGradient id="paint1_linear_403_6704" x1="66.1616" y1="122.341" x2="69.8121" y2="125.991" gradientUnits="userSpaceOnUse">
<stop stop-color="#FFE77B"/>
<stop offset="0.5" stop-color="#FFC141"/>
<stop offset="1" stop-color="#FF9B06"/>
</linearGradient>
<linearGradient id="paint2_linear_403_6704" x1="186.27" y1="61.9471" x2="196.654" y2="61.9471" gradientUnits="userSpaceOnUse">
<stop stop-color="#FFE77B"/>
<stop offset="0.5" stop-color="#FFC141"/>
<stop offset="1" stop-color="#FF9B06"/>
</linearGradient>
<linearGradient id="paint3_linear_403_6704" x1="202.143" y1="192.719" x2="210.104" y2="200.68" gradientUnits="userSpaceOnUse">
<stop stop-color="#FFE77B"/>
<stop offset="0.5" stop-color="#FFC141"/>
<stop offset="1" stop-color="#FF9B06"/>
</linearGradient>
<linearGradient id="paint4_linear_403_6704" x1="33.9291" y1="170.235" x2="40.2708" y2="170.235" gradientUnits="userSpaceOnUse">
<stop stop-color="#FFE77B"/>
<stop offset="0.5" stop-color="#FFC141"/>
<stop offset="1" stop-color="#FF9B06"/>
</linearGradient>
<linearGradient id="paint5_linear_403_6704" x1="102.535" y1="104.933" x2="157.837" y2="160.234" gradientUnits="userSpaceOnUse">
<stop stop-color="#FFE77B"/>
<stop offset="0.5" stop-color="#FFC141"/>
<stop offset="1" stop-color="#FF9B06"/>
</linearGradient>
<linearGradient id="paint6_linear_403_6704" x1="154.76" y1="100.837" x2="111.111" y2="75.6362" gradientUnits="userSpaceOnUse">
<stop stop-color="#FF9B06"/>
<stop offset="0.5" stop-color="#FFC141"/>
<stop offset="1" stop-color="#FFE77B"/>
</linearGradient>
<clipPath id="clip0_403_6704">
<rect width="256" height="256" fill="white"/>
</clipPath>
</defs>
</svg>
