<svg width="183" height="236" viewBox="0 0 183 236" fill="none" xmlns="http://www.w3.org/2000/svg">
<g clip-path="url(#clip0_403_6797)">
<mask id="mask0_403_6797" style="mask-type:luminance" maskUnits="userSpaceOnUse" x="-106" y="-91" width="348" height="347">
<path d="M241.51 -90.6738H-105.816V255.874H241.51V-90.6738Z" fill="white"/>
</mask>
<g mask="url(#mask0_403_6797)">
<path d="M8.79475 50.1214C7.98951 45.2513 12.8775 41.4115 17.4217 43.362C40.3957 53.2234 109.789 83.9721 119.588 99.6701C131.359 118.527 125.839 140.064 133.45 151.563C156.757 186.774 125.319 213.772 92.9431 203.867C81.7487 200.442 72.1364 195.479 63.3027 189.151C28.4819 164.209 49.9781 98.0273 49.9781 98.0273C49.9781 98.0273 16.5669 71.4889 11.1966 58.2583C9.90392 55.0742 9.16815 52.3786 8.79475 50.1214Z" fill="#984F2D"/>
<path d="M58.6275 91.4513C58.6275 91.4513 20.6438 78.9545 14.1268 80.6872C9.2451 81.9857 3.72036 93.7383 0.505329 101.647C-1.32563 106.152 2.48167 110.908 7.2933 110.144C10.5709 109.625 14.4777 108.084 18.6584 104.523C23.5244 100.379 29.0978 102.358 35.308 104.982C47.7285 110.23 53.9381 112.854 53.9381 112.854L58.6275 91.4513Z" fill="#984F2D"/>
<path d="M46.6531 100.071C46.6531 100.071 11.0672 106.968 7.16503 112.021C3.63854 116.587 4.03514 128.069 4.78078 135.766C5.26591 140.768 11.1919 143.201 15.0246 139.94C17.4513 137.876 19.9109 134.566 21.7928 129.272C24.5378 121.552 52.1294 118.168 52.1294 118.168L46.6531 100.071Z" fill="#984F2D"/>
<path d="M35.4975 107.985C27.2144 119.768 15.7407 147.736 10.4643 161.135C8.69235 165.635 12.5014 170.334 17.2858 169.569C19.6992 169.182 22.1426 168.166 24.0604 165.996C29.6998 159.609 52.9079 120.457 52.9079 120.457L35.4975 107.985Z" fill="#984F2D"/>
<path d="M132.527 152.716C139.607 161.738 163.406 196.422 163.406 196.422L110.151 229.91C110.151 229.91 102.501 219.889 94.2144 202.587C70.1212 152.281 124.158 142.057 132.527 152.716Z" fill="#984F2D"/>
<path d="M167.891 197.489L108.22 235.494L94.7131 214.382L154.383 176.377L167.891 197.489Z" fill="#F6AB58"/>
<path d="M110.555 22.0486L110.683 143.046C110.691 150.995 104.753 157.448 97.42 157.457L38.4277 157.529C31.0945 157.539 25.1436 151.101 25.1354 143.15L25.0079 22.1543C24.9998 14.2039 30.9373 7.75231 38.2699 7.74302L97.2622 7.67046C104.595 7.66117 110.546 14.0983 110.555 22.0486Z" fill="white"/>
<path d="M110.555 22.0486L110.683 143.046C110.691 150.995 104.753 157.448 97.42 157.457L38.4277 157.529C31.0945 157.539 25.1436 151.101 25.1354 143.15L25.0079 22.1543C24.9998 14.2039 30.9373 7.75231 38.2699 7.74302L97.2622 7.67046C104.595 7.66117 110.546 14.0983 110.555 22.0486Z" stroke="#1F202B" stroke-width="10" stroke-miterlimit="10"/>
<path d="M87.4007 9.02515C87.4661 11.023 86.027 12.7009 84.1839 12.7748L51.5016 12.775C49.659 12.7011 48.2199 11.0232 48.2853 9.02539" stroke="#1F202B" stroke-width="10" stroke-linecap="round" stroke-linejoin="round"/>
<path d="M121.6 155.324C121.6 155.324 112.753 123.418 104.078 117.231C91.1149 107.984 80.9111 122.37 83.7685 130.572C85.335 135.066 88.6156 146.645 86.89 156.004C84.6406 168.207 90.0115 181.436 93.2116 184.25L121.6 155.324Z" fill="#984F2D"/>
<path d="M104.164 117.231C95.2638 109.425 78.4381 102.832 68.9885 99.5328C64.8773 98.0975 60.5768 101.183 60.6695 105.528C60.754 109.494 62.0253 114.215 66.4433 118.1C74.6026 125.274 81.4363 127.788 83.8543 130.572C91.0666 138.874 113.02 131.068 104.164 117.231Z" fill="#984F2D"/>
<mask id="mask1_403_6797" style="mask-type:luminance" maskUnits="userSpaceOnUse" x="-106" y="-91" width="348" height="347">
<path d="M-105.816 -90.6738H241.51V255.874H-105.816V-90.6738Z" fill="white"/>
</mask>
<g mask="url(#mask1_403_6797)">
<path d="M163.127 88.2973H55.1955L38.0312 103.545V78.7673V49.5418C38.0312 44.2789 42.411 40.0117 47.8137 40.0117H163.127C168.53 40.0117 172.91 44.2789 172.91 49.5418V78.7673C172.91 84.0307 168.53 88.2973 163.127 88.2973Z" fill="white"/>
<path d="M163.127 88.2973H55.1955L38.0312 103.545V78.7673V49.5418C38.0312 44.2789 42.411 40.0117 47.8137 40.0117H163.127C168.53 40.0117 172.91 44.2789 172.91 49.5418V78.7673C172.91 84.0307 168.53 88.2973 163.127 88.2973Z" stroke="#929DAC" stroke-width="10" stroke-linecap="round" stroke-linejoin="round"/>
<path d="M61.7653 61.3828L55.9766 67.1586L61.7653 61.3828Z" fill="white"/>
<path d="M61.7653 61.3828L55.9766 67.1586" stroke="black" stroke-linecap="round" stroke-linejoin="round"/>
<path d="M61.7653 67.1586L55.9766 61.3828L61.7653 67.1586Z" fill="white"/>
<path d="M61.7653 67.1586L55.9766 61.3828" stroke="black" stroke-linecap="round" stroke-linejoin="round"/>
<path d="M80.8689 61.3828L75.0801 67.1586L80.8689 61.3828Z" fill="white"/>
<path d="M80.8689 61.3828L75.0801 67.1586" stroke="black" stroke-linecap="round" stroke-linejoin="round"/>
<path d="M80.8689 67.1586L75.0801 61.3828L80.8689 67.1586Z" fill="white"/>
<path d="M80.8689 67.1586L75.0801 61.3828" stroke="black" stroke-linecap="round" stroke-linejoin="round"/>
<path d="M99.9704 61.3828L94.1816 67.1586L99.9704 61.3828Z" fill="white"/>
<path d="M99.9704 61.3828L94.1816 67.1586" stroke="black" stroke-linecap="round" stroke-linejoin="round"/>
<path d="M99.9704 67.1586L94.1816 61.3828L99.9704 67.1586Z" fill="white"/>
<path d="M99.9704 67.1586L94.1816 61.3828" stroke="black" stroke-linecap="round" stroke-linejoin="round"/>
<path d="M119.074 61.3828L113.285 67.1586L119.074 61.3828Z" fill="white"/>
<path d="M119.074 61.3828L113.285 67.1586" stroke="black" stroke-linecap="round" stroke-linejoin="round"/>
<path d="M119.074 67.1586L113.285 61.3828L119.074 67.1586Z" fill="white"/>
<path d="M119.074 67.1586L113.285 61.3828" stroke="black" stroke-linecap="round" stroke-linejoin="round"/>
<path d="M138.177 61.3828L132.389 67.1586L138.177 61.3828Z" fill="white"/>
<path d="M138.177 61.3828L132.389 67.1586" stroke="black" stroke-linecap="round" stroke-linejoin="round"/>
<path d="M138.177 67.1586L132.389 61.3828L138.177 67.1586Z" fill="white"/>
<path d="M138.177 67.1586L132.389 61.3828" stroke="black" stroke-linecap="round" stroke-linejoin="round"/>
<path d="M157.281 61.3828L151.492 67.1586L157.281 61.3828Z" fill="white"/>
<path d="M157.281 61.3828L151.492 67.1586" stroke="black" stroke-linecap="round" stroke-linejoin="round"/>
<path d="M157.281 67.1586L151.492 61.3828L157.281 67.1586Z" fill="white"/>
<path d="M157.281 67.1586L151.492 61.3828" stroke="black" stroke-linecap="round" stroke-linejoin="round"/>
</g>
</g>
</g>
<defs>
<clipPath id="clip0_403_6797">
<rect width="183" height="236" fill="white"/>
</clipPath>
</defs>
</svg>
